HIERARCHY
ROOT root
{
	OFFSET	0	13.1	24.9
	CHANNELS 6  Xposition Yposition Zposition Xrotation Yrotation Zrotation
	JOINT spine_1
	{
		OFFSET	0	9.99999	0
		CHANNELS 3  Xrotation Yrotation Zrotation
		JOINT spine_2
		{
			OFFSET	0	112	-10
			CHANNELS 3  Xrotation Yrotation Zrotation
			JOINT spine_3
			{
				OFFSET	0	206.5	19.3
				CHANNELS 3  Xrotation Yrotation Zrotation
				JOINT spine_4
				{
					OFFSET	0	110.4	14.6
					CHANNELS 3  Xrotation Yrotation Zrotation
					JOINT neck_1
					{
						OFFSET	0	71.8	-50.3
						CHANNELS 3  Xrotation Yrotation Zrotation
						JOINT neck_2
						{
							OFFSET	0	86.2	-25.8
							CHANNELS 3  Xrotation Yrotation Zrotation
							JOINT head_ee
							{
								OFFSET	0	179.8	-8.7
								CHANNELS 3  Xrotation Yrotation Zrotation
								End Site
								{
									OFFSET	1	0	0
								}
							}
						}
					}
					JOINT left_clavicle
					{
						OFFSET	-43.2	22.4	-70.8
						CHANNELS 3  Xrotation Yrotation Zrotation
						JOINT left_shoulder
						{
							OFFSET	-93.9	-5.79999	48.7
							CHANNELS 3  Xrotation Yrotation Zrotation
							JOINT left_elbow
							{
								OFFSET	-291.4	-30.8	15.2
								CHANNELS 3  Xrotation Yrotation Zrotation
								JOINT left_lowarm_twist
								{
									OFFSET	-110.7	-3.89999	13.6
									CHANNELS 3  Xrotation Yrotation Zrotation
									JOINT left_hand
									{
										OFFSET	-110.7	-3.89999	13.6
										CHANNELS 3  Xrotation Yrotation Zrotation
										JOINT left_ee
										{
											OFFSET	-80.8	-5.10001	12.1
											CHANNELS 3  Xrotation Yrotation Zrotation
											End Site
											{
												OFFSET	1	0	0
											}
										}
									}
								}
							}
						}
					}
					JOINT right_clavicle
					{
						OFFSET	43.2	22.4	-70.8
						CHANNELS 3  Xrotation Yrotation Zrotation
						JOINT right_shoulder
						{
							OFFSET	93.9	-5.79999	48.7
							CHANNELS 3  Xrotation Yrotation Zrotation
							JOINT right_elbow
							{
								OFFSET	291.4	-30.8	15.2
								CHANNELS 3  Xrotation Yrotation Zrotation
								JOINT right_lowarm_twist
								{
									OFFSET	110.7	-3.89999	13.6
									CHANNELS 3  Xrotation Yrotation Zrotation
									JOINT right_hand
									{
										OFFSET	110.7	-3.89999	13.6
										CHANNELS 3  Xrotation Yrotation Zrotation
										JOINT right_ee
										{
											OFFSET	80.8	-5.10001	12.1
											CHANNELS 3  Xrotation Yrotation Zrotation
											End Site
											{
												OFFSET	1	0	0
											}
										}
									}
								}
							}
						}
					}
				}
			}
		}
	}
	JOINT left_hip
	{
		OFFSET	-82.8	-127.5	0.300001
		CHANNELS 3  Xrotation Yrotation Zrotation
		JOINT left_knee
		{
			OFFSET	-28.2	-396.7	2.2
			CHANNELS 3  Xrotation Yrotation Zrotation
			JOINT left_ankle
			{
				OFFSET	-11.7	-411.3	35.4
				CHANNELS 3  Xrotation Yrotation Zrotation
				JOINT left_toes
				{
					OFFSET	0	-60	-88.6
					CHANNELS 3  Xrotation Yrotation Zrotation
					JOINT left_foot_ee
					{
						OFFSET	-22.5	-16.5	-42.2
						CHANNELS 3  Xrotation Yrotation Zrotation
						End Site
						{
							OFFSET	1	0	0
						}
					}
				}
			}
		}
	}
	JOINT right_hip
	{
		OFFSET	82.8	-127.5	0.300001
		CHANNELS 3  Xrotation Yrotation Zrotation
		JOINT right_knee
		{
			OFFSET	28.2	-396.7	2.2
			CHANNELS 3  Xrotation Yrotation Zrotation
			JOINT right_ankle
			{
				OFFSET	11.7	-411.3	35.4
				CHANNELS 3  Xrotation Yrotation Zrotation
				JOINT right_toes
				{
					OFFSET	0	-60	-88.6
					CHANNELS 3  Xrotation Yrotation Zrotation
					JOINT right_foot_ee
					{
						OFFSET	22.5	-16.5	-42.2
						CHANNELS 3  Xrotation Yrotation Zrotation
						End Site
						{
							OFFSET	1	0	0
						}
					}
				}
			}
		}
	}
}
MOTION
Frames: 7
Frame Time: 0.02
3177.02 653.055 -1669.29 -5.22516926982 29.7438983933 2.68912192155 1.0653 -0.0838438 -0.0538924 1.06529 -0.0802445 -0.0591184 1.06538 -0.0674037 -0.0734228 1.06538 -0.0781536 -0.0618561 -2.16502 2.73781 6.88128 -2.03215 -0.503776 7.59209 -0.0 0.0 -0.0 8.9205 22.1482 15.4331 -39.4369 -43.9471 51.19 0.712726 -19.4463 0.122126 8.0861 0.213932 -1.0099 0.690308 1.98938 5.42803 -0.0 0.0 -0.0 8.60216 12.8799 -16.7085 -6.86411 63.9884 -48.739 0.390436 10.9466 -0.0374113 35.1752 0.122379 4.42197 -1.82337 28.2551 24.0773 0.0 0.0 0.0 31.0748 -26.5564 -0.0762627 -8.89516 0.262776 1.33848 -3.64403 30.1362 0.578117 -26.7589 0.0 0.0 -0.0 0.0 -0.0 3.1296 1.87478 0.962719 -24.5783 -0.21327 -3.73689 24.9928 -7.48412 3.33022 1.34521 -0.0 -0.0 0.0 0.0 0.0 
3160.51243714 652.241 -1693.01353406 -5.11195885638 27.7840698462 3.16797565551 1.31999 -0.0474764 -0.125229 1.32 -0.0394115 -0.127996 1.32009 -0.0147002 -0.133117 1.32007 -0.035539 -0.129125 -1.84628 2.88763 7.09047 -1.70569 -0.440027 7.84594 -0.0 0.0 -0.0 9.26913 21.8483 16.0097 -45.1258 -43.457 47.9667 0.818906 -22.0804 0.159778 6.40793 0.181297 -0.798025 0.276387 2.41887 2.84961 -0.0 0.0 -0.0 9.77562 10.2378 -19.3397 -13.6874 64.0354 -45.764 0.447805 12.5076 -0.0490728 33.7093 0.0631113 4.2442 -2.05844 28.1812 25.678 0.0 0.0 0.0 31.0141 -26.8505 -1.03694 -14.0182 0.318929 2.12228 -5.26959 29.3945 0.834149 -25.2438 0.0 0.0 -0.0 0.0 -0.0 2.73198 1.21101 1.35637 -26.1936 -0.17094 -3.98115 23.2272 -2.97122 3.12967 1.37616 -0.0 -0.0 0.0 0.0 0.0 
3160.40804235 652.241 -1692.94055101 -5.12389070795 28.0355796932 3.19346657212 1.31999 -0.0474764 -0.125229 1.32 -0.0394115 -0.127996 1.32009 -0.0147002 -0.133117 1.32007 -0.035539 -0.129125 -1.84628 2.88763 7.09047 -1.70569 -0.440027 7.84594 -0.0 0.0 -0.0 9.26913 21.8483 16.0097 -45.1258 -43.457 47.9667 0.818906 -22.0804 0.159778 6.40793 0.181297 -0.798025 0.276387 2.41887 2.84961 -0.0 0.0 -0.0 9.77562 10.2378 -19.3397 -13.6874 64.0354 -45.764 0.447805 12.5076 -0.0490728 33.7093 0.0631113 4.2442 -2.05844 28.1812 25.678 0.0 0.0 0.0 31.0141 -26.8505 -1.03694 -14.0182 0.318929 2.12228 -5.26959 29.3945 0.834149 -25.2438 0.0 0.0 -0.0 0.0 -0.0 2.73198 1.21101 1.35637 -26.1936 -0.17094 -3.98115 23.2272 -2.97122 3.12967 1.37616 -0.0 -0.0 0.0 0.0 0.0 
3160.35169093 652.241 -1692.9008698 -5.13041136413 28.1716644025 3.20730885492 1.31999 -0.0474764 -0.125229 1.32 -0.0394115 -0.127996 1.32009 -0.0147002 -0.133117 1.32007 -0.035539 -0.129125 -1.84628 2.88763 7.09047 -1.70569 -0.440027 7.84594 -0.0 0.0 -0.0 9.26913 21.8483 16.0097 -45.1258 -43.457 47.9667 0.818906 -22.0804 0.159778 6.40793 0.181297 -0.798025 0.276387 2.41887 2.84961 -0.0 0.0 -0.0 9.77562 10.2378 -19.3397 -13.6874 64.0354 -45.764 0.447805 12.5076 -0.0490728 33.7093 0.0631113 4.2442 -2.05844 28.1812 25.678 0.0 0.0 0.0 31.0141 -26.8505 -1.03694 -14.0182 0.318929 2.12228 -5.26959 29.3945 0.834149 -25.2438 0.0 0.0 -0.0 0.0 -0.0 2.73198 1.21101 1.35637 -26.1936 -0.17094 -3.98115 23.2272 -2.97122 3.12967 1.37616 -0.0 -0.0 0.0 0.0 0.0 
3111.08229433 656.508 -1729.84489912 -5.07255018725 22.0566013799 3.58726731229 1.54317 -0.0982525 -0.864299 1.54359 -0.0430579 -0.868799 1.54428 0.117326 -0.861917 1.54324 -0.0202645 -0.869629 -1.23459 5.11819 5.41364 -1.15531 4.84534 6.35851 -0.0 0.0 -0.0 8.34494 14.9545 15.3865 -38.8184 -47.0571 52.8837 0.729473 -19.8678 0.12776 7.91603 0.210907 -0.988391 0.348305 5.94807 4.76651 -0.0 0.0 -0.0 9.22388 9.09009 -18.1602 -10.7358 61.7852 -52.8883 0.431547 12.067 -0.0456129 35.0461 0.116975 4.40636 -2.23468 25.2485 25.8805 0.0 0.0 0.0 30.2291 -26.9429 -0.980664 -18.6952 0.308884 2.83959 -14.8291 27.9215 2.35339 -28.3862 0.0 0.0 -0.0 0.0 -0.0 3.33339 5.83271 2.46203 -28.2826 -0.106004 -4.29517 13.1888 -7.67199 1.85306 4.70484 -0.0 -0.0 0.0 0.0 0.0 
3097.60389771 659.564 -1741.96507087 -5.04533659842 20.9550885682 3.46400792725 1.49534 -0.17991 -0.744092 1.49564 -0.132198 -0.754031 1.49743 0.00923033 -0.765476 1.49663 -0.111775 -0.757328 -1.46621 4.57779 6.63381 -1.3512 2.9208 7.58379 -0.0 0.0 -0.0 7.7956 13.6644 14.5595 -34.9191 -46.1138 56.09 0.707811 -19.3222 0.120495 8.1528 0.215101 -1.01834 -0.799437 8.75399 -1.5215 -0.0 0.0 -0.0 10.2028 7.70211 -20.2869 -19.1774 60.5649 -46.5806 0.552978 15.3193 -0.0743698 33.9851 0.0739129 4.27776 -1.76749 24.9185 22.4787 0.0 0.0 0.0 29.9972 -27.1634 -0.351434 -20.2105 0.293077 3.07156 -14.2312 26.5178 2.23889 -27.58 0.0 0.0 -0.0 0.0 -0.0 4.26079 6.98508 2.52155 -28.8339 -0.0869625 -4.37762 10.5176 -10.2183 1.49355 4.08895 -0.0 -0.0 0.0 0.0 0.0 
3097.65504144 659.564 -1742.02091902 -5.04398074147 20.9149393415 3.46021329154 1.49534 -0.17991 -0.744092 1.49564 -0.132198 -0.754031 1.49743 0.00923033 -0.765476 1.49663 -0.111775 -0.757328 -1.46621 4.57779 6.63381 -1.3512 2.9208 7.58379 -0.0 0.0 -0.0 7.7956 13.6644 14.5595 -34.9191 -46.1138 56.09 0.707811 -19.3222 0.120495 8.1528 0.215101 -1.01834 -0.799437 8.75399 -1.5215 -0.0 0.0 -0.0 10.2028 7.70211 -20.2869 -19.1774 60.5649 -46.5806 0.552978 15.3193 -0.0743698 33.9851 0.0739129 4.27776 -1.76749 24.9185 22.4787 0.0 0.0 0.0 29.9972 -27.1634 -0.351434 -20.2105 0.293077 3.07156 -14.2312 26.5178 2.23889 -27.58 0.0 0.0 -0.0 0.0 -0.0 4.26079 6.98508 2.52155 -28.8339 -0.0869625 -4.37762 10.5176 -10.2183 1.49355 4.08895 -0.0 -0.0 0.0 0.0 0.0 
